HIERARCHY
ROOT Hips
{
	OFFSET 0.000000 0.000000 0.000000 
	CHANNELS 6 Xposition Yposition Zposition Zrotation Yrotation Xrotation
	JOINT LeftUpLeg
	{
		OFFSET 1.363060 -1.794630 0.839290 
		CHANNELS 3 Zrotation Yrotation Xrotation
		JOINT LeftLeg
		{
			OFFSET 2.448110 -6.726130 0.000000 
			CHANNELS 3 Zrotation Yrotation Xrotation
			JOINT LeftFoot
			{
				OFFSET 2.562200 -7.039590 0.000000 
				CHANNELS 3 Zrotation Yrotation Xrotation
				JOINT LeftToeBase
				{
					OFFSET 0.157640 -0.433110 2.322550 
					CHANNELS 3 Zrotation Yrotation Xrotation
					End Site
					{
						OFFSET 0.000000 0.000000 0.000000 
					}
				}
			}
		}
	}
	JOINT RightUpLeg
	{
		OFFSET -1.305520 -1.794630 0.839290 
		CHANNELS 3 Zrotation Yrotation Xrotation
		JOINT RightLeg
		{
			OFFSET -2.542530 -6.985550 0.000000 
			CHANNELS 3 Zrotation Yrotation Xrotation
			JOINT RightFoot
			{
				OFFSET -2.568260 -7.056230 0.000000 
				CHANNELS 3 Zrotation Yrotation Xrotation
				JOINT RightToeBase
				{
					OFFSET -0.164730 -0.452590 2.363150 
					CHANNELS 3 Zrotation Yrotation Xrotation
					End Site
					{
						OFFSET 0.000000 0.000000 0.000000 
					}
				}
			}
		}
	}
	JOINT Spine
	{
		OFFSET 0.028270 2.035590 -0.193380 
		CHANNELS 3 Zrotation Yrotation Xrotation
		JOINT Spine1
		{
			OFFSET 0.056720 2.048850 -0.042750 
			CHANNELS 3 Zrotation Yrotation Xrotation
			JOINT Neck1
			{
				OFFSET -0.054170 1.746240 0.172020 
				CHANNELS 3 Zrotation Yrotation Xrotation
				JOINT Head
				{
					OFFSET 0.104070 1.761360 -0.123970 
					CHANNELS 3 Zrotation Yrotation Xrotation
					End Site
					{
						OFFSET 0.000000 0.000000 0.000000 
					}
				}
			}
			JOINT LeftArm
			{
				OFFSET 3.362410 1.200890 -0.311210 
				CHANNELS 3 Zrotation Yrotation Xrotation
				JOINT LeftForeArm
				{
					OFFSET 4.983000 -0.000000 -0.000000 
					CHANNELS 3 Zrotation Yrotation Xrotation
					JOINT LeftHand
					{
						OFFSET 3.483560 -0.000000 -0.000000 
						CHANNELS 3 Zrotation Yrotation Xrotation
						JOINT LeftHandIndex1
						{
							OFFSET 0.715260 -0.000000 -0.000000 
							CHANNELS 3 Zrotation Yrotation Xrotation
							End Site
							{
								OFFSET 0.000000 0.000000 0.000000 
							}
						}
					}
				}
			}
			JOINT RightArm
			{
				OFFSET -3.136600 1.374050 -0.404650 
				CHANNELS 3 Zrotation Yrotation Xrotation
				JOINT RightForeArm
				{
					OFFSET -5.241900 -0.000000 -0.000000 
					CHANNELS 3 Zrotation Yrotation Xrotation
					JOINT RightHand
					{
						OFFSET -3.444170 -0.000000 -0.000000 
						CHANNELS 3 Zrotation Yrotation Xrotation
						JOINT RightHandIndex1
						{
							OFFSET -0.622530 -0.000000 -0.000000 
							CHANNELS 3 Zrotation Yrotation Xrotation
							End Site
							{
								OFFSET 0.000000 0.000000 0.000000 
							}
						}
					}
				}
			}
		}
	}
}
MOTION
Frames: 6
Frame Time: 0.041667
-0.439194 18.372759 7.905073 -9.100289 0.265665 10.997284 -22.576776 -40.294961 20.537857 -3.723041 -2.667127 -3.221466 -14.171398 42.932614 -22.640910 0.095100 1.988900 5.474900 24.497304 25.803803 3.405688 3.538770 -0.356971 2.452170 6.963448 -22.670830 -1.804479 -0.010900 -0.675500 1.856300 26.642158 6.331569 -17.141536 -13.225778 -1.319214 -9.728860 33.717477 -16.108230 3.011321 7.172200 -8.016200 3.915800 -83.635218 7.676915 -19.072583 11.321556 -13.602899 -2.021996 0.529832 1.748493 30.414199 -7.125000 0.000000 0.000000 76.546354 -8.327890 -15.218464 -8.970186 12.187148 -1.322638 1.043156 1.304600 58.163861 7.125000 0.000000 0.000000 
-0.438668 18.372339 7.905178 -9.176271 0.232720 10.860895 -22.513076 -40.114179 20.533608 -3.725161 -2.682924 -3.223808 -14.126866 42.823998 -22.527120 0.092400 1.959900 5.395000 24.547271 25.690922 3.411847 3.532353 -0.374865 2.518419 6.919208 -22.546631 -1.722245 -0.008800 -0.605400 1.663700 27.049963 6.264739 -16.588027 -13.303052 -1.347470 -9.831640 33.520104 -16.207019 3.141842 7.102100 -8.050000 3.916800 -83.753616 7.674640 -17.348337 11.693850 -14.002956 -2.047601 0.288929 1.423170 28.908332 -7.125000 0.000000 0.000000 76.479540 -8.160172 -14.706409 -9.048318 12.301700 -1.345122 1.039586 1.315223 57.487378 7.125000 0.000000 0.000000 
-0.438248 18.372759 7.903601 -9.208731 0.194695 10.706480 -22.587339 -40.081118 20.609264 -3.730365 -2.678428 -3.156226 -14.101078 42.772246 -22.617782 0.090100 1.935900 5.328400 24.525463 25.652436 3.425284 3.527529 -0.389763 2.575498 6.900212 -22.480903 -1.671485 -0.009400 -0.624900 1.717300 27.580779 6.135393 -15.745120 -13.388573 -1.381436 -9.967064 33.542350 -16.099653 2.664474 7.115300 -8.065700 3.815900 -83.776935 7.525991 -17.950161 11.515939 -13.829595 -2.061989 0.445166 1.675385 28.589143 -7.125000 0.000000 0.000000 76.385003 -7.936050 -14.121253 -9.136887 12.436951 -1.369513 1.029722 1.327354 56.765921 7.125000 0.000000 0.000000 
-0.436250 18.373390 7.900657 -9.210749 0.167393 10.550202 -22.717711 -40.053120 20.694066 -3.735403 -2.668371 -3.069925 -14.074352 42.717691 -22.694814 0.096600 2.003900 5.516500 24.456804 25.603519 3.442314 3.524473 -0.394415 2.597071 6.892893 -22.453154 -1.592604 -0.008100 -0.580900 1.596300 28.161282 5.993639 -14.933147 -13.452456 -1.433589 -10.197702 33.436911 -15.923173 2.136759 7.113700 -8.050700 3.704600 -84.024324 7.594088 -16.270762 11.937410 -14.318828 -2.134899 0.277883 1.426763 27.354464 -7.125000 0.000000 0.000000 76.276014 -7.789747 -13.448474 -9.231202 12.591330 -1.394718 1.006461 1.345386 56.018682 7.125000 0.000000 0.000000 
-0.434673 18.373916 7.897818 -9.229499 0.162115 10.436314 -22.741440 -39.971900 20.700546 -3.737922 -2.677201 -3.047900 -14.050557 42.652858 -22.637417 0.101400 2.053000 5.652200 24.421789 25.577927 3.455294 3.522821 -0.398366 2.609952 6.899258 -22.468636 -1.543392 -0.004900 -0.454000 1.247400 28.688739 5.856391 -14.272117 -13.505972 -1.503479 -10.480246 33.082794 -16.058974 2.346858 7.031400 -8.078900 3.775100 -84.221414 7.781049 -15.285144 12.138414 -14.580829 -2.204168 0.247119 1.410561 26.338690 -7.125000 0.000000 0.000000 76.166371 -7.697354 -12.888865 -9.280432 12.687485 -1.408421 0.984771 1.358959 55.375546 7.125000 0.000000 0.000000 
-0.434042 18.374967 7.895504 -9.271956 0.168374 10.404400 -22.688435 -39.941614 20.681549 -3.739635 -2.697558 -3.076531 -14.048398 42.636990 -22.615963 0.104400 2.083800 5.737300 24.426455 25.580126 3.430320 3.521473 -0.406173 2.625466 6.901148 -22.475370 -1.531866 -0.004200 -0.416000 1.143100 29.012409 5.819118 -13.987370 -13.589845 -1.521483 -10.500112 33.465265 -15.625384 1.258528 7.193400 -8.027400 3.539900 -84.307339 7.916344 -15.013456 12.135165 -14.603739 -2.244078 0.303070 1.552049 25.715723 -7.125000 0.000000 0.000000 76.105898 -7.593939 -12.578697 -9.278787 12.690880 -1.409587 0.980710 1.361259 54.989855 7.125000 0.000000 0.000000 
